<svg width="30" height="33" viewBox="0 0 30 33" fill="none" xmlns="http://www.w3.org/2000/svg">
<path d="M14.6358 22.0522C13.7585 22.0562 12.8928 21.8436 12.1097 21.4321C11.3267 21.0206 10.6485 20.4218 10.1309 19.6849L6.52316 21.8405C6.66045 22.0052 6.82297 22.145 7.0042 22.2543L13.424 26.1037C13.7992 26.3031 14.2145 26.407 14.6358 26.407C15.0572 26.407 15.4724 26.3031 15.8476 26.1037L22.2675 22.2543C22.4487 22.145 22.6112 22.0052 22.7485 21.8405L19.1501 19.6464C18.6355 20.3918 17.9577 20.9988 17.1726 21.4172C16.3875 21.8355 15.5179 22.0533 14.6358 22.0522Z" fill="#64748B"/>
<path d="M8.98642 16.2431C8.98971 14.8746 9.52163 13.5551 10.4805 12.537C11.4394 11.519 12.758 10.8736 14.1843 10.7243V6.57599C13.9679 6.6189 13.7597 6.69335 13.5671 6.79674L6.87451 10.476C6.51075 10.7081 6.20828 11.0174 5.99082 11.3796C5.77331 11.7419 5.64671 12.1472 5.62088 12.5639V19.9223C5.62385 20.1347 5.65955 20.3455 5.72693 20.5478L9.48792 18.4783C9.15904 17.7748 8.98823 17.0134 8.98642 16.2431Z" fill="#64748B"/>
<path d="M22.4622 10.4734L16.1219 6.79661C15.9394 6.69326 15.7422 6.61885 15.5372 6.57599V10.7124C16.3985 10.8106 17.2249 11.1108 17.9498 11.5891C18.6747 12.0674 19.2779 12.7102 19.7108 13.4659C20.1436 14.2215 20.394 15.0689 20.4419 15.9397C20.4898 16.8106 20.3337 17.6805 19.9863 18.4796L23.5494 20.5478C23.6132 20.3455 23.6471 20.1349 23.6498 19.9228V12.5692C23.6268 12.1512 23.5075 11.7443 23.3014 11.3805C23.0952 11.0168 22.808 10.7063 22.4622 10.4734Z" fill="#64748B"/>
<path d="M27.0797 6.78836L16.6129 0.735041C15.9991 0.426714 15.3218 0.266174 14.635 0.266174C13.9482 0.266174 13.271 0.426714 12.6571 0.735041L2.19033 6.78836C1.61582 7.16317 1.13749 7.668 0.793872 8.26207C0.4503 8.85614 0.251134 9.52278 0.212463 10.2081V22.3147C0.250413 23.0015 0.449219 23.6698 0.792791 24.2655C1.13636 24.8612 1.6151 25.3677 2.19033 25.744L12.6571 31.7974C13.271 32.1057 13.9482 32.2662 14.635 32.2662C15.3218 32.2662 15.9991 32.1057 16.6129 31.7974L27.0797 25.744C27.6549 25.3677 28.1336 24.8612 28.4772 24.2655C28.8208 23.6698 29.0196 23.0015 29.0575 22.3147V10.2081C29.0189 9.52278 28.8197 8.85614 28.4761 8.26207C28.1325 7.668 27.6542 7.16317 27.0797 6.78836ZM25.7358 20.9222C25.7051 21.4498 25.5512 21.9628 25.2866 22.4202C25.0221 22.8776 24.6541 23.2664 24.2121 23.5557L16.1491 28.2165C15.6782 28.4546 15.1579 28.5786 14.6303 28.5786C14.1026 28.5786 13.5823 28.4546 13.1114 28.2165L5.05785 23.5557C4.61593 23.2664 4.24793 22.8776 3.98337 22.4202C3.71876 21.9628 3.56494 21.4498 3.5342 20.9222V11.6102C3.56494 11.0825 3.71876 10.5695 3.98337 10.1122C4.24793 9.65479 4.61593 9.26588 5.05785 8.97662L13.1019 4.31589C13.5729 4.07778 14.0931 3.9537 14.6208 3.9537C15.1484 3.9537 15.6687 4.07778 16.1397 4.31589L24.2027 8.97662C24.6463 9.26484 25.0162 9.65331 25.2825 10.1107C25.5488 10.5681 25.704 11.0817 25.7358 11.6102V20.9222Z" fill="#64748B"/>
<path d="M10.5799 16.2662C10.5799 17.0238 10.8178 17.7645 11.2635 18.3945C11.7092 19.0246 12.3427 19.5156 13.084 19.8055C13.8251 20.0955 14.6407 20.1713 15.4276 20.0236C16.2145 19.8757 16.9372 19.5109 17.5045 18.9751C18.0718 18.4393 18.4581 17.7567 18.6146 17.0136C18.7711 16.2704 18.6908 15.5001 18.3838 14.8001C18.0768 14.1001 17.5569 13.5018 16.8898 13.0808C16.2228 12.6599 15.4385 12.4352 14.6362 12.4352C13.5604 12.4352 12.5287 12.8388 11.768 13.5573C11.0073 14.2757 10.5799 15.2501 10.5799 16.2662Z" fill="#64748B"/>
</svg>
