<svg width="26" height="33" viewBox="0 0 26 33" fill="none" xmlns="http://www.w3.org/2000/svg">
<path d="M15.7631 9.30396C16.7145 9.30483 17.655 9.51143 18.5233 9.91017C19.3917 10.309 20.1683 10.891 20.8026 11.6182L22.7883 9.78226C21.5172 8.33262 19.8497 7.30954 18.0032 6.84661C16.1568 6.38362 14.2171 6.50227 12.4373 7.18702C10.6576 7.87177 9.1204 9.09082 8.02639 10.6851C6.93233 12.2794 6.33228 14.1749 6.30445 16.1243C6.27662 18.0736 6.82236 19.9863 7.87041 21.6128C8.91851 23.2392 10.4202 24.5039 12.1797 25.2418C13.9391 25.9796 15.8746 26.1565 17.7335 25.7491C19.5923 25.3418 21.2884 24.3693 22.6002 22.9584L20.6596 21.0684C19.8866 21.8975 18.9253 22.5172 17.8617 22.8722C16.7981 23.2271 15.6652 23.3063 14.5645 23.1024C13.4638 22.8987 12.4295 22.4183 11.554 21.7043C10.6785 20.9904 9.98915 20.065 9.5476 19.011C9.106 17.957 8.92593 16.8072 9.02348 15.6644C9.12108 14.5216 9.4932 13.4213 10.1066 12.4621C10.7201 11.5028 11.5557 10.7144 12.5389 10.1674C13.522 9.62028 14.622 9.3316 15.7406 9.32709L15.7631 9.30396Z" fill="#64748B"/>
<path d="M6.78787 7.01004L4.8288 5.11462C3.29837 6.57654 2.08397 8.31423 1.25527 10.228C0.426618 12.1417 0 14.1937 0 16.2661C0 18.3386 0.426618 20.3906 1.25527 22.3043C2.08397 24.218 3.29837 25.9557 4.8288 27.4176L6.78787 25.5222C5.5119 24.3119 4.49886 22.8705 3.80741 21.2816C3.11602 19.6928 2.76 17.988 2.76 16.2661C2.76 14.5442 3.11602 12.8395 3.80741 11.2506C4.49886 9.66172 5.5119 8.22037 6.78787 7.01004Z" fill="#64748B"/>
<path d="M25.2125 3.40572C22.5413 1.36204 19.3135 0.262016 16.0003 0.266186V3.01814C18.7342 3.01552 21.398 3.91957 23.6065 5.59952L25.2125 3.40572Z" fill="#64748B"/>
<path d="M16.0003 29.5513V32.2661C19.0996 32.2696 22.1325 31.366 24.7276 29.666L23.2032 27.4177C21.0588 28.8135 18.5566 29.5548 16.0003 29.5513Z" fill="#64748B"/>
<path d="M16 26.1982C13.9005 26.1968 11.8521 25.5689 10.1321 24.3995C8.41213 23.2301 7.10362 21.5756 6.38363 19.6601L3.87875 20.7899C4.82203 23.1688 6.48505 25.2143 8.64879 26.657C10.8125 28.0998 13.3754 28.8721 16 28.8722V26.1982Z" fill="#64748B"/>
<path d="M6.06834 15.7813C6.23096 13.2308 7.34776 10.8382 9.19207 9.08913C11.0364 7.34009 13.4701 6.36545 15.9995 6.36298V3.6601C12.7604 3.66 9.64521 4.91828 7.29869 7.17452C4.95217 9.43081 3.55392 12.5123 3.39343 15.7813H6.06834Z" fill="#64748B"/>
</svg>
