<svg width="96" height="97" viewBox="0 0 96 97" fill="none" xmlns="http://www.w3.org/2000/svg">
<path d="M64 59.2468C66.9874 58.0764 70 55.41 70 50.0322C70 42.0322 63.3334 40.0322 60 40.0322C60 36.0322 60 28.0322 48 28.0322C36 28.0322 36 36.0322 36 40.0322C32.6667 40.0322 26 42.0322 26 50.0322C26 55.41 29.0126 58.0764 32 59.2468" stroke="#FEF08A" stroke-width="1.5" stroke-linecap="round" stroke-linejoin="round"/>
<path d="M39.1611 63.0068L42.6967 66.5424C45.821 69.6666 50.8862 69.6666 54.0104 66.5424L54.7176 65.8352" stroke="#FEF08A" stroke-width="1.5" stroke-linecap="round" stroke-linejoin="round"/>
<path d="M39.8682 67.9566L39.1611 63.0068L44.1108 63.714L39.8682 67.9566Z" stroke="#FEF08A" stroke-width="1.5" stroke-linecap="round" stroke-linejoin="round"/>
<path d="M56.5962 57.8356L53.0606 54.3002C49.9364 51.176 44.871 51.176 41.7469 54.3002L41.0398 55.0072" stroke="#FEF08A" stroke-width="1.5" stroke-linecap="round" stroke-linejoin="round"/>
<path d="M55.889 52.8857L56.5962 57.8355L51.6464 57.1283L55.889 52.8857Z" stroke="#FEF08A" stroke-width="1.5" stroke-linecap="round" stroke-linejoin="round"/>
</svg>
